<?xml version="1.0" encoding="utf-8"?>
<!-- Generator: Adobe Illustrator 22.1.0, SVG Export Plug-In . SVG Version: 6.00 Build 0)  -->
<svg version="1.1" id="Layer_1" xmlns="http://www.w3.org/2000/svg" xmlns:xlink="http://www.w3.org/1999/xlink" x="0px" y="0px"
	 viewBox="0 0 258.8 258.8" style="enable-background:new 0 0 258.8 258.8;" xml:space="preserve">
<style type="text/css">
	.st0{fill:url(#XMLID_2_);}
	.st1{fill:url(#XMLID_3_);}
	.st2{fill:url(#XMLID_4_);}
</style>
<g id="XMLID_138_">
	
		<radialGradient id="XMLID_2_" cx="75.0736" cy="-152.4592" r="261.1088" gradientTransform="matrix(1 0 0 -1 0 105.8)" gradientUnits="userSpaceOnUse">
		<stop  offset="0" style="stop-color:#FFD776"/>
		<stop  offset="0.2463" style="stop-color:#F3A554"/>
		<stop  offset="0.3793" style="stop-color:#F15C3C"/>
		<stop  offset="0.5394" style="stop-color:#D94867"/>
		<stop  offset="0.6995" style="stop-color:#C32F87"/>
		<stop  offset="0.9122" style="stop-color:#7D63A7"/>
		<stop  offset="0.9852" style="stop-color:#5C6CB3"/>
	</radialGradient>
	<path id="XMLID_142_" class="st0" d="M252,44.6c-3.3-8.5-7.7-15.7-14.9-22.9c-7.2-7.2-14.4-11.6-22.9-14.9
		c-8.2-3.2-17.7-5.4-31.4-6C169,0.2,164.6,0,129.4,0S89.8,0.1,76,0.8c-13.8,0.6-23.2,2.8-31.4,6c-8.5,3.3-15.7,7.7-22.9,14.9
		S10.1,36.1,6.8,44.6c-3.2,8.2-5.4,17.7-6,31.4C0.2,89.8,0,94.2,0,129.4s0.1,39.6,0.8,53.4c0.6,13.8,2.8,23.2,6,31.4
		c3.3,8.5,7.7,15.7,14.9,22.9c7.2,7.2,14.4,11.6,22.9,14.9c8.2,3.2,17.7,5.4,31.4,6c13.8,0.6,18.2,0.8,53.4,0.8s39.6-0.1,53.4-0.8
		c13.8-0.6,23.2-2.8,31.4-6c8.5-3.3,15.7-7.7,22.9-14.9c7.2-7.2,11.6-14.4,14.9-22.9c3.2-8.2,5.4-17.7,6-31.4
		c0.6-13.8,0.8-18.2,0.8-53.4S258.7,89.8,258,76C257.4,62.2,255.2,52.8,252,44.6z M234.7,181.7c-0.6,12.6-2.7,19.5-4.5,24
		c-2.3,6-5.2,10.4-9.7,14.9s-8.8,7.3-14.9,9.7c-4.6,1.8-11.4,3.9-24,4.5c-13.7,0.6-17.7,0.8-52.3,0.8s-38.7-0.1-52.3-0.8
		c-12.6-0.6-19.5-2.7-24-4.5c-6-2.3-10.4-5.2-14.9-9.7s-7.3-8.8-9.7-14.9c-1.8-4.6-3.9-11.4-4.5-24c-0.6-13.7-0.8-17.8-0.8-52.3
		s0.1-38.7,0.8-52.3c0.6-12.6,2.7-19.5,4.5-24c2.3-6,5.2-10.4,9.7-14.9s8.8-7.3,14.9-9.7c4.6-1.8,11.4-3.9,24-4.5
		c13.7-0.6,17.8-0.8,52.3-0.8s38.7,0.1,52.3,0.8c12.6,0.6,19.5,2.7,24,4.5c6,2.3,10.4,5.2,14.9,9.7s7.3,8.8,9.7,14.9
		c1.8,4.6,3.9,11.4,4.5,24c0.6,13.7,0.8,17.8,0.8,52.3S235.3,168.1,234.7,181.7z"/>
	
		<radialGradient id="XMLID_3_" cx="101.454" cy="-89.7691" r="134.0828" gradientTransform="matrix(1 0 0 -1 0 105.8)" gradientUnits="userSpaceOnUse">
		<stop  offset="0" style="stop-color:#FFD776"/>
		<stop  offset="0.2463" style="stop-color:#F3A554"/>
		<stop  offset="0.3793" style="stop-color:#F15C3C"/>
		<stop  offset="0.607" style="stop-color:#D94867"/>
		<stop  offset="0.8346" style="stop-color:#C32F87"/>
		<stop  offset="0.9577" style="stop-color:#7D63A7"/>
		<stop  offset="1" style="stop-color:#5C6CB3"/>
	</radialGradient>
	<path id="XMLID_145_" class="st1" d="M129.3,62.9c-36.7,0-66.5,29.8-66.5,66.5s29.8,66.5,66.5,66.5s66.5-29.8,66.5-66.5
		S166,62.9,129.3,62.9z M129.3,172.6c-23.8,0-43.2-19.3-43.2-43.2c0-23.8,19.3-43.2,43.2-43.2s43.2,19.3,43.2,43.2
		C172.5,153.2,153.1,172.6,129.3,172.6z"/>
	
		<radialGradient id="XMLID_4_" cx="191.9223" cy="30.0696" r="31.333" gradientTransform="matrix(1 0 0 -1 0 105.8)" gradientUnits="userSpaceOnUse">
		<stop  offset="0" style="stop-color:#5F6DB3"/>
		<stop  offset="1" style="stop-color:#5C6CB3"/>
	</radialGradient>
	<circle id="XMLID_143_" class="st2" cx="198.4" cy="60.3" r="15.5"/>
</g>
</svg>
